<svg width="150" height="159" viewBox="0 0 150 159" fill="none" xmlns="http://www.w3.org/2000/svg">
<path d="M74.9695 2.1509e-06C84.7703 -0.00299951 94.314 3.13576 102.2 8.95559C110.086 14.7754 115.898 22.9698 118.784 32.336C121.671 41.7022 121.478 51.747 118.236 60.996C114.994 70.2449 108.872 78.211 100.769 83.725C114.833 88.8833 127.031 98.1327 135.794 110.283C144.556 122.433 149.482 136.927 149.936 151.9C149.979 152.731 149.855 153.562 149.572 154.345C149.289 155.127 148.852 155.846 148.288 156.457C147.723 157.069 147.043 157.562 146.285 157.907C145.528 158.252 144.71 158.442 143.878 158.466C143.046 158.491 142.218 158.349 141.441 158.049C140.665 157.749 139.956 157.297 139.357 156.719C138.758 156.142 138.28 155.451 137.952 154.686C137.623 153.921 137.451 153.099 137.444 152.267C136.948 136.029 130.149 120.622 118.488 109.312C106.826 98.0013 91.2191 91.6759 74.9736 91.6759C58.7282 91.6759 43.1211 98.0013 31.4597 109.312C19.7983 120.622 12.9991 136.029 12.5028 152.267C12.4531 153.924 11.7469 155.494 10.5397 156.631C9.33239 157.768 7.72292 158.379 6.06531 158.329C4.40771 158.279 2.83776 157.573 1.70082 156.366C0.563877 155.159 -0.046913 153.549 0.0028151 151.892C0.45905 136.92 5.38527 122.428 14.1475 110.279C22.9097 98.1309 35.107 88.8828 49.1695 83.725C41.0669 78.211 34.9451 70.2449 31.7028 60.996C28.4605 51.747 28.2683 41.7022 31.1546 32.336C34.0408 22.9698 39.8534 14.7754 47.7392 8.95559C55.625 3.13576 65.1687 -0.00299951 74.9695 2.1509e-06ZM41.6361 45.8333C41.6361 54.6739 45.148 63.1523 51.3993 69.4036C57.6505 75.6548 66.1289 79.1667 74.9695 79.1667C83.81 79.1667 92.2885 75.6548 98.5397 69.4036C104.791 63.1523 108.303 54.6739 108.303 45.8333C108.303 36.9928 104.791 28.5143 98.5397 22.2631C92.2885 16.0119 83.81 12.5 74.9695 12.5C66.1289 12.5 57.6505 16.0119 51.3993 22.2631C45.148 28.5143 41.6361 36.9928 41.6361 45.8333Z" fill="black"/>
</svg>
